<?xml version="1.0" encoding="UTF-8"?>
<svg id="Front" xmlns="http://www.w3.org/2000/svg" viewBox="0 0 160 30">
  <defs>
    <style>
      .cls-1 {
        fill: #fff;
        stroke: #1e1e1e;
        stroke-linecap: round;
        stroke-miterlimit: 10;
        stroke-width: .5px;
      }

      .cls-2 {
        fill: none;
      }

      .cls-3 {
        fill: #1e1e1e;
      }
    </style>
  </defs>
  <g>
    <polyline class="cls-3" points="35.93 7.69 31.95 7.69 18.03 18.76 16.64 7.69 12.69 7.69 2.47 25.51 6.93 25.51 12.95 15.01 14.1 23.6 16.21 23.6 27.29 14.89 21.26 25.51 25.71 25.51 35.93 7.69"/>
    <path class="cls-3" d="M39.58,22.46c-.75,0-1.35-.15-1.78-.45-.44-.3-.68-.73-.71-1.31-.04-.58,.17-1.25,.62-2.04s1.02-1.48,1.71-2.04c.68-.56,1.41-.99,2.2-1.29,.78-.3,1.55-.45,2.31-.45s1.37,.15,1.79,.45c.43,.3,.67,.73,.71,1.29,.04,.56-.17,1.24-.62,2.04s-1.02,1.46-1.71,2.04c-.7,.58-1.43,1.01-2.2,1.31-.77,.3-1.55,.45-2.33,.45m6.22-10.84c-1.67,0-3.33,.3-4.99,.9-1.66,.6-3.16,1.43-4.52,2.49-1.35,1.06-2.42,2.28-3.21,3.65s-1.1,2.56-.97,3.63c.14,1.06,.69,1.9,1.65,2.51,.95,.61,2.27,.92,3.94,.92s3.37-.31,5.04-.92c1.66-.61,3.17-1.44,4.52-2.49,1.35-1.05,2.42-2.27,3.21-3.64s1.12-2.59,.97-3.65c-.14-1.06-.69-1.89-1.66-2.49-.97-.6-2.31-.9-3.99-.9"/>
    <path class="cls-3" d="M77.92,11.61c-1.53,0-3.07,.32-4.59,.95-.87,.36-1.68,.8-2.42,1.3-.07-.53-.29-.97-.68-1.3-.73-.64-1.83-.95-3.28-.95-1.28,0-2.57,.24-3.87,.73-.75,.28-1.45,.64-2.11,1.06l.91-1.58h-4.39s-7.86,13.7-7.86,13.7h4.6s3.94-6.87,3.94-6.87c.48-.83,1.01-1.51,1.6-2.02,.59-.52,1.23-.91,1.91-1.17,.68-.26,1.35-.39,2.03-.39,.98,0,1.58,.26,1.8,.79,.21,.53,.01,1.34-.62,2.44l-4.15,7.23h4.6s3.94-6.87,3.94-6.87c.48-.83,1.01-1.51,1.59-2.02,.58-.52,1.22-.91,1.9-1.17,.68-.26,1.36-.39,2.05-.39,.94,0,1.52,.26,1.74,.79,.21,.53,.01,1.34-.62,2.44l-4.15,7.23h4.6s4.5-7.84,4.5-7.84c.8-1.39,1.17-2.53,1.14-3.42-.04-.89-.42-1.55-1.15-1.99s-1.72-.65-2.97-.65"/>
    <path class="cls-3" d="M88.69,17.47c.32-.43,.68-.81,1.09-1.16,.65-.53,1.35-.95,2.12-1.25,.78-.3,1.55-.45,2.33-.45s1.39,.15,1.81,.45c.42,.3,.65,.71,.68,1.23,.02,.35-.07,.74-.24,1.17h-7.79m7.24-5.85c-1.61,0-3.23,.3-4.87,.9-1.63,.6-3.11,1.44-4.45,2.51-1.33,1.07-2.38,2.28-3.16,3.64s-1.1,2.56-.97,3.63c.14,1.06,.71,1.9,1.72,2.51s2.42,.92,4.22,.92c1.44,0,2.82-.19,4.13-.57,1.32-.38,2.55-.93,3.68-1.64l-1.13-2.29c-.78,.44-1.55,.77-2.32,.99-.76,.22-1.56,.33-2.39,.33-.96,0-1.7-.15-2.22-.45-.51-.3-.81-.73-.88-1.29-.04-.31,.01-.65,.12-1.02h11.99c.12-.17,.24-.35,.37-.55,.14-.2,.24-.37,.33-.52,.85-1.48,1.21-2.74,1.08-3.79-.12-1.05-.64-1.86-1.56-2.44-.91-.58-2.15-.87-3.71-.87"/>
    <path class="cls-3" d="M116.89,11.61c-1.36,0-2.71,.25-4.05,.74-.79,.29-1.55,.67-2.26,1.11l.95-1.65h-4.39s-7.86,13.7-7.86,13.7h4.6s3.88-6.77,3.88-6.77c.5-.87,1.06-1.56,1.68-2.09,.63-.53,1.31-.92,2.04-1.2,.74-.27,1.47-.41,2.19-.41,1.02,0,1.66,.26,1.92,.79,.26,.53,.07,1.34-.56,2.44l-4.15,7.23h4.6s4.5-7.84,4.5-7.84c.8-1.39,1.17-2.53,1.11-3.42-.06-.89-.46-1.55-1.21-1.99-.74-.43-1.74-.65-3-.65"/>
    <path class="cls-3" d="M134.44,8.79h-4.63s-1.91,3.33-1.91,3.33h-2.45s-1.75,3.05-1.75,3.05h2.45s-3.23,5.63-3.23,5.63c-.93,1.63-1.12,2.86-.55,3.68,.58,.82,1.79,1.23,3.66,1.23,.71,0,1.43-.07,2.17-.22,.75-.15,1.42-.36,2.04-.65l.4-2.8c-.7,.34-1.43,.51-2.18,.51-.59,0-.96-.16-1.12-.48-.15-.32-.07-.77,.26-1.35l3.18-5.55h3.92s1.75-3.05,1.75-3.05h-3.92s1.91-3.33,1.91-3.33"/>
    <polyline class="cls-3" points="158.04 7.69 149.13 7.69 147.24 11 151.36 11 143.04 25.51 147.82 25.51 158.04 7.69"/>
  </g>
  <path class="cls-2" d="M1.96,25.03C5.17,16.22,7.01,12.22,11.72,6.01c24.32,1.68,48.92,.03,73.41,1.27,24.04,1.22,47.77-4.11,71.35-2.3-3.2,8.83-4.87,13.13-9.35,19.74-24.21-.83-48.4-.53-72.56,.19-23.22,.69-49.63,2.23-72.61,.12Z"/>
  <g>
    <path class="cls-1" d="M35.06,6.3c-1.51,.13-2.26,.21-3.77,.34-5.69,4.24-8.45,6.47-13.7,11.42-.89-5.02-1.23-7.36-1.66-11.59-1.67-.17-2.52-.27-4.21-.46C7.06,12.15,5.23,16.08,2.05,24.78c1.98,.34,2.96,.5,4.88,.75,1.86-5.15,2.79-7.73,5.12-12.07,.69,3.86,1.18,6.03,2.09,10.26,.86,.02,1.28,.02,2.11,.01,3.98-4.24,5.96-6.37,10.2-10.17-2.35,4.37-3.3,6.93-5.23,11.99,1.64-.24,2.43-.4,4.05-.67,3.34-8.35,5.25-12.15,9.78-18.58"/>
    <path class="cls-1" d="M38.21,20.26c-.75,.01-1.34-.12-1.77-.42-.44-.3-.69-.75-.74-1.35-.05-.6,.13-1.32,.55-2.14,.43-.83,1-1.52,1.69-2.08,.68-.56,1.42-.99,2.2-1.29,.78-.3,1.55-.45,2.32-.45,.78,0,1.38,.16,1.81,.46,.44,.31,.69,.75,.75,1.33,.06,.57-.14,1.28-.59,2.09-.44,.8-1,1.49-1.69,2.07-.69,.59-1.43,1.02-2.2,1.32-.77,.3-1.54,.45-2.32,.46m6.12-11.01c-1.66,.02-3.3,.37-4.94,1-1.65,.63-3.17,1.43-4.5,2.54-1.33,1.1-2.35,2.39-3.08,3.86-.72,1.45-.98,2.78-.8,3.91,.18,1.13,.74,1.96,1.67,2.53,.93,.56,2.2,.78,3.82,.69,1.64-.09,3.29-.44,4.96-1.06,1.66-.61,3.19-1.43,4.54-2.47,1.36-1.04,2.42-2.26,3.19-3.67,.77-1.41,1.06-2.68,.89-3.8-.17-1.11-.76-2-1.74-2.63-.99-.63-2.33-.93-4.01-.91"/>
    <path class="cls-1" d="M77.67,11.19c-1.59-.1-3.18,.12-4.74,.69-.89,.33-2.43,1.24-2.47,1.22-.09-.04-.37-1.11-.81-1.52-.82-.78-2-1.26-3.54-1.39-1.36-.12-2.7,.03-4.03,.45-.77,.24-1.49,.58-2.16,.99,.35-.66,.52-1,.87-1.66-1.84-.14-2.76-.2-4.58-.29-3.03,5.69-4.56,8.5-7.66,14.02,1.9,.09,2.85,.14,4.77,.26,1.59-2.72,2.38-4.09,3.92-6.9,.47-.85,.99-1.53,1.6-2.04,.6-.5,1.25-.88,1.96-1.1,.7-.22,1.41-.31,2.12-.24,1.04,.09,1.7,.44,1.96,1.04,.26,.59,.08,1.47-.54,2.58-1.63,2.93-2.48,4.35-4.21,7.11,1.92,.13,2.88,.2,4.78,.31,1.69-2.55,2.51-3.87,4.09-6.62,.48-.83,1.01-1.51,1.6-2.01,.58-.5,1.24-.87,1.94-1.09,.7-.22,1.41-.31,2.13-.26,.98,.07,1.6,.39,1.84,.96,.24,.57,.05,1.41-.59,2.49-1.68,2.85-2.63,4.1-4.44,6.73,1.84,0,2.75-.02,4.53-.12,1.99-2.81,3.04-4.11,4.89-7.17,.82-1.36,1.2-2.5,1.14-3.42-.06-.92-.47-1.64-1.24-2.15-.77-.5-1.81-.8-3.11-.88"/>
    <path class="cls-1" d="M88.45,17.05c.34-.39,.72-.76,1.14-1.08,.66-.51,1.37-.91,2.14-1.21,.77-.3,1.54-.46,2.31-.49,.77-.03,1.35,.08,1.74,.33,.39,.25,.59,.6,.58,1.06,0,.3-.12,.64-.33,1.01-3.06,.09-4.56,.19-7.56,.39m7.4-5.58c-1.58,.04-3.2,.36-4.83,.98-1.62,.61-3.11,1.45-4.45,2.5-1.34,1.05-2.41,2.23-3.24,3.49-.83,1.27-1.23,2.35-1.2,3.22,.03,.88,.49,1.51,1.37,1.9,.88,.39,2.16,.47,3.88,.32,1.37-.12,2.72-.36,4.04-.73,1.33-.37,2.6-.84,3.8-1.45-.36-.76-.54-1.13-.89-1.87-.81,.39-1.6,.69-2.37,.91-.76,.22-1.55,.35-2.34,.41-.92,.07-1.61,.01-2.07-.19-.46-.2-.7-.53-.71-.98,0-.25,.07-.54,.21-.86,4.58-.37,6.88-.55,11.69-.54,.14-.15,.28-.3,.42-.47,.15-.17,.27-.31,.37-.45,.97-1.26,1.42-2.38,1.36-3.31-.06-.93-.53-1.67-1.41-2.18-.88-.51-2.09-.75-3.62-.72"/>
    <path class="cls-1" d="M116.88,11.59c-1.37-.02-2.75,.19-4.12,.62-.81,.26-1.59,.59-2.33,.99,.41-.61,.61-.92,1.01-1.54-1.78-.04-2.67-.06-4.44-.09-3.37,5.09-5.26,7.27-8.9,11.89,1.88,.08,2.84,.14,4.78,.31,1.77-2.33,2.68-3.46,4.43-5.83,.56-.76,1.17-1.36,1.84-1.82s1.39-.79,2.15-1.02c.77-.22,1.52-.32,2.27-.28,1.05,.05,1.7,.32,1.95,.85,.25,.52,.05,1.31-.63,2.33-1.78,2.68-2.72,3.93-4.58,6.48,1.93,.16,2.89,.23,4.78,.3,1.99-2.8,3.06-4.07,4.9-7.14,.82-1.36,1.18-2.51,1.12-3.41-.07-.9-.47-1.56-1.21-1.99-.73-.42-1.74-.64-3.01-.66"/>
    <path class="cls-1" d="M133.27,6.77c-1.65,.35-2.47,.53-4.14,.85-.64,1.54-.96,2.33-1.61,3.87-.91,.12-1.37,.18-2.29,.27-.62,1.36-.93,2.04-1.59,3.34,.95-.04,1.42-.09,2.34-.19-1.19,2.42-1.81,3.59-3.2,5.67-1.01,1.51-1.27,2.6-.76,3.3,.51,.71,1.67,1.02,3.46,.9,.68-.05,1.38-.16,2.1-.35,.72-.18,1.39-.43,1.99-.73,.21-1.03,.32-1.54,.51-2.61-.68,.38-1.37,.61-2.08,.68-.56,.06-.91-.06-1.04-.34-.13-.28-.03-.7,.3-1.27,1.28-2.21,1.88-3.39,2.99-5.88,1.43-.23,2.15-.36,3.6-.56,.59-1.41,.88-2.13,1.44-3.6-1.43,.23-2.14,.37-3.55,.65,.63-1.57,.93-2.38,1.53-4"/>
    <path class="cls-1" d="M156.48,4.99c-3.96-.69-5.91-.97-9.54-1.09-.56,1.67-.84,2.51-1.41,4.15,1.68,.05,2.54,.11,4.3,.29-2.54,7.16-4.02,10.39-7.54,15.87,1.97,.11,2.97,.19,4.97,.33,4.42-6.56,6.06-10.82,9.22-19.55"/>
  </g>
</svg>